<svg xmlns="http://www.w3.org/2000/svg" width="1200" height="675" viewBox="0 0 1200 675">
  <defs>
    <linearGradient id="bg" x1="0" x2="1" y1="0" y2="1"><stop offset="0" stop-color="#1c140f"/><stop offset=".55" stop-color="#111827"/><stop offset="1" stop-color="#05060a"/></linearGradient>
    <radialGradient id="glow" cx="78%" cy="18%" r="70%"><stop offset="0" stop-color="#8FA073" stop-opacity=".36"/><stop offset="1" stop-color="#8FA073" stop-opacity="0"/></radialGradient>
  </defs>
  <rect width="1200" height="675" fill="url(#bg)"/><rect width="1200" height="675" fill="url(#glow)"/>
  <rect x="58" y="58" width="1084" height="559" rx="36" fill="rgba(255,255,255,.045)" stroke="#334155"/>
  <text x="92" y="126" fill="#d8b46a" font-family="-apple-system,BlinkMacSystemFont,'Noto Sans TC','Segoe UI',sans-serif" font-size="28" letter-spacing="5">AI LEARNING RADAR</text>
  <text x="92" y="218" fill="#f8fafc" font-family="-apple-system,BlinkMacSystemFont,'Noto Sans TC','Segoe UI',sans-serif" font-size="58" font-weight="800">NotebookLM → PPTX</text>
  <text x="92" y="292" fill="#f8fafc" font-family="-apple-system,BlinkMacSystemFont,'Noto Sans TC','Segoe UI',sans-serif" font-size="44" font-weight="700">可編輯文字框與講者備忘錄</text>
  <text x="94" y="370" fill="#cbd5e1" font-family="-apple-system,BlinkMacSystemFont,'Noto Sans TC','Segoe UI',sans-serif" font-size="26">品牌配色 · 角色一致性 · 原生 PowerPoint 編輯</text>
  <g transform="translate(92,440)">
    <rect width="155" height="50" rx="25" fill="#1e293b" stroke="#475569"/><text x="24" y="34" fill="#8FA073" font-size="22" font-family="-apple-system,BlinkMacSystemFont,'Noto Sans TC','Segoe UI',sans-serif">PPTX</text>
    <rect x="179" width="215" height="50" rx="25" fill="#1e293b" stroke="#475569"/><text x="203" y="34" fill="#8FA073" font-size="22" font-family="-apple-system,BlinkMacSystemFont,'Noto Sans TC','Segoe UI',sans-serif">可編輯文字</text>
    <rect x="418" width="190" height="50" rx="25" fill="#1e293b" stroke="#475569"/><text x="442" y="34" fill="#8FA073" font-size="22" font-family="-apple-system,BlinkMacSystemFont,'Noto Sans TC','Segoe UI',sans-serif">講者稿</text>
  </g>
  <g transform="translate(850,160)">
    <rect width="260" height="158" rx="18" fill="#f8fafc" opacity=".94"/>
    <rect x="28" y="28" width="152" height="18" rx="9" fill="#643312"/>
    <rect x="28" y="64" width="200" height="12" rx="6" fill="#262626" opacity=".75"/>
    <rect x="28" y="88" width="172" height="12" rx="6" fill="#262626" opacity=".55"/>
    <circle cx="214" cy="116" r="26" fill="#8FA073"/>
    <rect x="28" y="198" width="260" height="82" rx="16" fill="#111827" stroke="#8FA073" stroke-width="5"/>
    <rect x="52" y="224" width="180" height="12" rx="6" fill="#d8b46a"/>
    <rect x="52" y="250" width="210" height="10" rx="5" fill="#94a3b8"/>
  </g>
  <text x="92" y="572" fill="#94a3b8" font-family="-apple-system,BlinkMacSystemFont,'Noto Sans TC','Segoe UI',sans-serif" font-size="22">2026-09-04 · Threads @anncheng_ann101 · AI學習雷達</text>
</svg>
