<svg xmlns="http://www.w3.org/2000/svg" width="1600" height="900" viewBox="0 0 1600 900" role="img" aria-labelledby="t d"><title id="t">ToEstate 實價登錄 MCP 工作流</title><desc id="d">從中文問題、MCP 工具查詢、資料比較到人工覆核的房地產分析流程</desc><defs><linearGradient id="g" x1="0" y1="0" x2="1" y2="1"><stop stop-color="#092a36"/><stop offset="1" stop-color="#16204b"/></linearGradient></defs><rect width="1600" height="900" fill="url(#g)"/><path d="M0 720C250 550 420 880 700 700S1180 520 1600 720V900H0Z" fill="#22c6ae" opacity=".12"/><text x="115" y="135" fill="#8cece1" font-family="Arial,sans-serif" font-size="32" letter-spacing="5">AI LEARNING RADAR · MCP CASE STUDY</text><text x="115" y="245" fill="#fff" font-family="Arial,sans-serif" font-size="76" font-weight="700">實價登錄 MCP</text><text x="115" y="325" fill="#79e8d6" font-family="Arial,sans-serif" font-size="48">讓 AI 查資料，但不代替人工判斷</text><g font-family="Arial,sans-serif"><g fill="#122f4a" stroke="#6be6d5" stroke-width="2"><rect x="115" y="470" width="300" height="170" rx="25"/><rect x="495" y="470" width="300" height="170" rx="25"/><rect x="875" y="470" width="300" height="170" rx="25"/><rect x="1255" y="470" width="230" height="170" rx="25"/></g><g fill="#fff" font-size="31" font-weight="700"><text x="170" y="540">中文提問</text><text x="554" y="540">MCP 查詢</text><text x="930" y="540">條件比較</text><text x="1297" y="540">人工覆核</text></g><g fill="#b9d9e4" font-size="22"><text x="153" y="588">地址、預算、物件條件</text><text x="535" y="588">成交／法拍／統計工具</text><text x="908" y="588">期間、型態、特殊交易</text><text x="1295" y="588">官方資料、現況與風險</text></g></g><path d="M420 555h65m315 0h65m315 0h65" stroke="#79e8d6" stroke-width="9" stroke-linecap="round"/><text x="115" y="780" fill="#e1f7f5" font-family="Arial,sans-serif" font-size="31">遠端 MCP · Streamable HTTP · 官方教學頁標示免金鑰</text><text x="115" y="840" fill="#a9bacf" font-family="Arial,sans-serif" font-size="23">成交揭露落差、特殊交易與法拍風險仍需第一手資料與專業覆核</text></svg>
