<svg xmlns="http://www.w3.org/2000/svg" viewBox="0 0 512 512" role="img" aria-labelledby="title desc">
  <title id="title">Luarn-Pin AI Learning Radar</title>
  <desc id="desc">A dark premium radar icon with golden orbit rings, cyan signal nodes, and an AI spark at the center.</desc>
  <defs>
    <radialGradient id="bg" cx="35%" cy="24%" r="78%"><stop offset="0%" stop-color="#253554"/><stop offset="42%" stop-color="#0d1422"/><stop offset="100%" stop-color="#05060a"/></radialGradient>
    <linearGradient id="gold" x1="96" y1="84" x2="426" y2="428" gradientUnits="userSpaceOnUse"><stop offset="0%" stop-color="#f7d98b"/><stop offset="52%" stop-color="#d8b46a"/><stop offset="100%" stop-color="#8f6a2e"/></linearGradient>
    <linearGradient id="cyan" x1="126" y1="94" x2="420" y2="386" gradientUnits="userSpaceOnUse"><stop offset="0%" stop-color="#a7f3ff"/><stop offset="50%" stop-color="#7dd3fc"/><stop offset="100%" stop-color="#2563eb"/></linearGradient>
    <filter id="glow" x="-50%" y="-50%" width="200%" height="200%"><feGaussianBlur stdDeviation="7" result="blur"/><feColorMatrix in="blur" type="matrix" values="0 0 0 0 0.49 0 0 0 0 0.83 0 0 0 0 0.99 0 0 0 0.9 0"/><feMerge><feMergeNode/><feMergeNode in="SourceGraphic"/></feMerge></filter>
    <filter id="softShadow" x="-30%" y="-30%" width="160%" height="160%"><feDropShadow dx="0" dy="24" stdDeviation="22" flood-color="#000" flood-opacity="0.42"/></filter>
  </defs>
  <rect width="512" height="512" rx="116" fill="url(#bg)"/>
  <rect x="18" y="18" width="476" height="476" rx="102" fill="none" stroke="url(#gold)" stroke-width="4" opacity="0.52"/>
  <g filter="url(#softShadow)">
    <circle cx="256" cy="256" r="168" fill="none" stroke="#2a3345" stroke-width="2"/><circle cx="256" cy="256" r="116" fill="none" stroke="#2a3345" stroke-width="2"/><circle cx="256" cy="256" r="66" fill="none" stroke="#2a3345" stroke-width="2"/>
    <path d="M256 256 L403 171" stroke="url(#cyan)" stroke-width="8" stroke-linecap="round" filter="url(#glow)"/><path d="M256 256 L344 368" stroke="#d8b46a" stroke-width="5" stroke-linecap="round" opacity="0.7"/><path d="M256 256 L137 201" stroke="#d8b46a" stroke-width="5" stroke-linecap="round" opacity="0.42"/>
    <path d="M90 256a166 166 0 0 1 313-76" fill="none" stroke="url(#gold)" stroke-width="10" stroke-linecap="round"/><path d="M365 383A166 166 0 0 1 91 265" fill="none" stroke="url(#cyan)" stroke-width="7" stroke-linecap="round" opacity="0.85"/>
    <circle cx="256" cy="256" r="38" fill="#0b1020" stroke="url(#gold)" stroke-width="6"/><path d="M256 221l11 23 25 3-18 18 5 25-23-12-23 12 5-25-18-18 25-3z" fill="url(#cyan)" filter="url(#glow)"/>
    <circle cx="403" cy="171" r="15" fill="url(#cyan)" filter="url(#glow)"/><circle cx="344" cy="368" r="12" fill="url(#gold)"/><circle cx="137" cy="201" r="10" fill="#7dd3fc" opacity="0.86"/><circle cx="185" cy="392" r="7" fill="#f7d98b" opacity="0.8"/><circle cx="382" cy="99" r="6" fill="#7dd3fc" opacity="0.7"/>
  </g>
  <g opacity="0.88"><path d="M159 435h194" stroke="#d8b46a" stroke-width="3" stroke-linecap="round" opacity="0.62"/><text x="256" y="423" text-anchor="middle" font-family="-apple-system,BlinkMacSystemFont,'Segoe UI',sans-serif" font-size="32" font-weight="700" fill="#eef2ff" letter-spacing="2">AI RADAR</text></g>
</svg>
